<?xml version="1.0" standalone="no"?>
<!DOCTYPE svg PUBLIC "-//W3C//DTD SVG 20010904//EN"
 "http://www.w3.org/TR/2001/REC-SVG-20010904/DTD/svg10.dtd">
<svg version="1.0" xmlns="http://www.w3.org/2000/svg"
 width="700.000000pt" height="700.000000pt" viewBox="0 0 700.000000 700.000000"
 preserveAspectRatio="xMidYMid meet">
<metadata>
Created by potrace 1.14, written by Peter Selinger 2001-2017
</metadata>
<g transform="translate(0.000000,700.000000) scale(0.100000,-0.100000)"
fill="#000000" stroke="none">
<path d="M3278 6995 c-1 -1 -42 -5 -89 -9 -47 -4 -95 -8 -105 -10 -10 -2 -48
-7 -84 -12 -36 -4 -67 -8 -70 -9 -3 -1 -25 -5 -50 -9 -25 -4 -101 -21 -170
-38 -69 -16 -135 -31 -147 -34 -40 -8 -264 -84 -367 -126 -122 -48 -348 -158
-434 -210 -34 -21 -67 -38 -72 -38 -6 0 -10 -4 -10 -10 0 -5 -5 -10 -11 -10
-9 0 -193 -120 -239 -157 -221 -173 -283 -227 -412 -357 -493 -497 -820 -1114
-953 -1796 -30 -154 -34 -186 -52 -370 -15 -160 -7 -659 11 -689 2 -3 645 -6
1428 -6 l1423 0 0 395 0 395 -913 0 -913 0 6 40 c52 336 226 742 442 1033 238
321 589 614 913 764 19 9 65 30 101 47 56 25 236 89 344 121 86 25 238 52 244
42 3 -6 6 -1338 6 -2962 0 -1624 3 -2954 7 -2956 40 -25 654 -24 810 1 13 2
46 7 73 10 74 11 87 13 120 19 17 4 46 9 65 12 51 8 213 48 300 74 626 183
1201 546 1630 1029 36 41 70 79 76 85 29 30 185 242 240 326 122 187 240 409
315 597 66 163 147 422 175 558 31 151 59 330 72 465 9 103 6 595 -5 650 l-9
45 -1424 0 -1425 0 0 -395 0 -395 913 0 914 0 -6 -40 c-21 -132 -108 -426
-163 -545 -203 -446 -432 -729 -848 -1048 -105 -81 -329 -203 -505 -275 -177
-73 -515 -161 -529 -138 -3 5 -6 1338 -6 2961 0 1963 -3 2954 -10 2956 -38 13
-594 31 -607 19z"/>
<path d="M4174 6525 c-6 -15 -8 -71 -5 -125 1 -14 5 -31 9 -38 5 -7 76 -30
158 -52 172 -45 247 -70 399 -133 488 -201 904 -540 1204 -982 148 -218 213
-346 352 -690 4 -11 17 -51 30 -90 22 -73 34 -93 46 -82 24 25 -165 484 -302
732 -39 70 -166 275 -185 298 -6 7 -43 55 -83 108 -165 219 -392 449 -602 607
-249 188 -561 345 -850 428 -132 38 -163 41 -171 19z"/>
<path d="M630 2660 c0 -22 63 -206 112 -324 293 -715 782 -1285 1392 -1625
177 -98 334 -163 541 -222 103 -30 140 -35 149 -21 12 20 10 150 -3 170 -4 7
-53 25 -107 38 -384 97 -691 235 -986 444 -50 36 -96 69 -102 75 -6 5 -38 32
-71 59 -81 67 -277 266 -346 351 -227 281 -404 604 -519 949 -20 61 -42 112
-48 114 -7 2 -12 -1 -12 -8z"/>
</g>
</svg>
