<svg width="154" height="102" viewBox="0 0 154 102" fill="none" xmlns="http://www.w3.org/2000/svg">
<path d="M52.6007 37.1596C52.6007 37.1596 52.4861 37.1213 52.3569 37.1596C55.0424 46.097 61.7733 53.9355 70.8568 56.0646C70.8754 56.0689 70.8947 56.0712 70.9138 56.0711C71.2855 56.0706 71.2855 56.0488 71.2855 55.165C71.2855 54.7426 71.2855 54.4401 70.8848 54.3466C61.7459 52.4039 55.2772 46.0431 52.6007 37.1596Z" fill="#F3F2F0"/>
<path d="M101.399 22.8404C101.399 22.8404 101.514 22.8787 101.643 22.8404C98.9576 13.903 92.2267 6.06451 83.1432 3.93541C83.1246 3.93106 83.1053 3.92884 83.0862 3.92887C82.7145 3.9294 82.7145 3.95121 82.7145 4.83497C82.7145 5.25739 82.7145 5.55986 83.1152 5.65339C92.2541 7.59613 98.7228 13.9569 101.399 22.8404Z" fill="#F3F2F0"/>
<path d="M47 30C47 13.4315 60.4315 0 77 0C78.1452 0 79.2753 0.0641624 80.3871 0.189088V51.0224C89.4326 49.5763 96.5763 42.4326 98.0224 33.3871H82.3226V26.6129L106.811 26.6129C106.936 27.7247 107 28.8548 107 30C107 46.5685 93.5685 60 77 60C75.8548 60 74.7247 59.9358 73.6129 59.8109V8.97762C64.5674 10.4237 57.4237 17.5674 55.9776 26.6129L71.6774 26.6129V33.3871H47.1891C47.0642 32.2753 47 31.1452 47 30Z" fill="#F3F2F0"/>
<path d="M0.832 84.24V81.28L5.6 74.48H9.424V81.168H10.576V84.24H9.424V86H5.84V84.24H0.832ZM6.128 78.528L4.4 81.168H6.128V78.528ZM20.9616 74.672V77.488H17.9536V86H14.4016V77.488H11.4256V74.672H20.9616ZM29.189 84.288H25.413L24.853 86H21.125L25.269 74.672H29.365L33.493 86H29.749L29.189 84.288ZM28.325 81.616L27.301 78.464L26.277 81.616H28.325ZM37.852 83.312H41.276V86H34.3V74.672H37.852V83.312ZM45.9458 77.504V78.896H49.4658V81.568H45.9458V83.168H49.9458V86H42.3938V74.672H49.9458V77.504H45.9458ZM61.6351 78.032C61.6351 78.992 61.3205 79.7653 60.6911 80.352C60.0618 80.9387 59.1178 81.232 57.8591 81.232H55.6031V86H54.4831V74.816H57.8591C59.1071 74.816 60.0458 75.1093 60.6751 75.696C61.3151 76.2827 61.6351 77.0613 61.6351 78.032ZM57.8591 80.272C59.6085 80.272 60.4831 79.5253 60.4831 78.032C60.4831 77.2853 60.2751 76.72 59.8591 76.336C59.4431 75.952 58.7765 75.76 57.8591 75.76H55.6031V80.272H57.8591ZM69.4664 86L66.6984 81.328H64.6344V86H63.5144V74.816H66.8744C68.1224 74.816 69.0664 75.1147 69.7064 75.712C70.357 76.3093 70.6824 77.0933 70.6824 78.064C70.6824 78.8747 70.4477 79.568 69.9784 80.144C69.5197 80.7093 68.837 81.0773 67.9304 81.248L70.8104 86H69.4664ZM64.6344 80.416H66.8904C67.765 80.416 68.421 80.2027 68.8584 79.776C69.3064 79.3493 69.5304 78.7787 69.5304 78.064C69.5304 77.328 69.317 76.7627 68.8904 76.368C68.4637 75.9627 67.7917 75.76 66.8744 75.76H64.6344V80.416ZM77.929 86.112C76.8943 86.112 75.9557 85.872 75.113 85.392C74.2703 84.9013 73.6037 84.224 73.113 83.36C72.633 82.4853 72.393 81.4987 72.393 80.4C72.393 79.3013 72.633 78.32 73.113 77.456C73.6037 76.5813 74.2703 75.904 75.113 75.424C75.9557 74.9333 76.8943 74.688 77.929 74.688C78.9743 74.688 79.9183 74.9333 80.761 75.424C81.6037 75.904 82.265 76.5813 82.745 77.456C83.225 78.32 83.465 79.3013 83.465 80.4C83.465 81.4987 83.225 82.4853 82.745 83.36C82.265 84.224 81.6037 84.9013 80.761 85.392C79.9183 85.872 78.9743 86.112 77.929 86.112ZM77.929 85.136C78.761 85.136 79.5077 84.944 80.169 84.56C80.8303 84.176 81.353 83.6267 81.737 82.912C82.121 82.1867 82.313 81.3493 82.313 80.4C82.313 79.4507 82.121 78.6187 81.737 77.904C81.353 77.1893 80.8303 76.64 80.169 76.256C79.5077 75.872 78.761 75.68 77.929 75.68C77.097 75.68 76.3503 75.872 75.689 76.256C75.0277 76.64 74.505 77.1893 74.121 77.904C73.737 78.6187 73.545 79.4507 73.545 80.4C73.545 81.3493 73.737 82.1867 74.121 82.912C74.505 83.6267 75.0277 84.176 75.689 84.56C76.3503 84.944 77.097 85.136 77.929 85.136ZM88.8264 74.816C90.0637 74.816 91.125 75.04 92.0104 75.488C92.8957 75.936 93.573 76.5813 94.0424 77.424C94.5117 78.2667 94.7464 79.2693 94.7464 80.432C94.7464 81.584 94.5117 82.5813 94.0424 83.424C93.573 84.256 92.8957 84.896 92.0104 85.344C91.125 85.7813 90.0637 86 88.8264 86H85.5144V74.816H88.8264ZM88.8264 85.072C90.3837 85.072 91.5677 84.6667 92.3784 83.856C93.1997 83.0347 93.6104 81.8933 93.6104 80.432C93.6104 78.96 93.1997 77.8133 92.3784 76.992C91.5677 76.16 90.3837 75.744 88.8264 75.744H86.6344V85.072H88.8264ZM97.8832 74.816V81.856C97.8832 82.9653 98.1446 83.7867 98.6673 84.32C99.2006 84.8533 99.9259 85.12 100.843 85.12C101.761 85.12 102.475 84.8587 102.987 84.336C103.51 83.8027 103.771 82.976 103.771 81.856V74.816H104.891V81.84C104.891 83.2587 104.513 84.3253 103.755 85.04C103.009 85.7547 102.033 86.112 100.827 86.112C99.6219 86.112 98.6406 85.7547 97.8832 85.04C97.1366 84.3253 96.7633 83.2587 96.7633 81.84V74.816H97.8832ZM106.877 80.4C106.877 79.3013 107.117 78.32 107.597 77.456C108.077 76.5813 108.733 75.904 109.565 75.424C110.397 74.9333 111.325 74.688 112.349 74.688C113.597 74.688 114.664 74.9867 115.549 75.584C116.445 76.1707 117.096 77.0027 117.501 78.08H116.189C115.869 77.3227 115.379 76.7307 114.717 76.304C114.067 75.8773 113.277 75.664 112.349 75.664C111.528 75.664 110.787 75.856 110.125 76.24C109.475 76.624 108.963 77.1787 108.589 77.904C108.216 78.6187 108.029 79.4507 108.029 80.4C108.029 81.3493 108.216 82.1813 108.589 82.896C108.963 83.6107 109.475 84.16 110.125 84.544C110.787 84.928 111.528 85.12 112.349 85.12C113.277 85.12 114.067 84.912 114.717 84.496C115.379 84.0693 115.869 83.4827 116.189 82.736H117.501C117.096 83.8027 116.445 84.6293 115.549 85.216C114.653 85.8027 113.587 86.096 112.349 86.096C111.325 86.096 110.397 85.856 109.565 85.376C108.733 84.8853 108.077 84.208 107.597 83.344C107.117 82.48 106.877 81.4987 106.877 80.4ZM126.277 74.816V75.744H123.173V86H122.053V75.744H118.933V74.816H126.277ZM129.166 74.816V86H128.046V74.816H129.166ZM136.726 86.112C135.691 86.112 134.753 85.872 133.91 85.392C133.067 84.9013 132.401 84.224 131.91 83.36C131.43 82.4853 131.19 81.4987 131.19 80.4C131.19 79.3013 131.43 78.32 131.91 77.456C132.401 76.5813 133.067 75.904 133.91 75.424C134.753 74.9333 135.691 74.688 136.726 74.688C137.771 74.688 138.715 74.9333 139.558 75.424C140.401 75.904 141.062 76.5813 141.542 77.456C142.022 78.32 142.262 79.3013 142.262 80.4C142.262 81.4987 142.022 82.4853 141.542 83.36C141.062 84.224 140.401 84.9013 139.558 85.392C138.715 85.872 137.771 86.112 136.726 86.112ZM136.726 85.136C137.558 85.136 138.305 84.944 138.966 84.56C139.627 84.176 140.15 83.6267 140.534 82.912C140.918 82.1867 141.11 81.3493 141.11 80.4C141.11 79.4507 140.918 78.6187 140.534 77.904C140.15 77.1893 139.627 76.64 138.966 76.256C138.305 75.872 137.558 75.68 136.726 75.68C135.894 75.68 135.147 75.872 134.486 76.256C133.825 76.64 133.302 77.1893 132.918 77.904C132.534 78.6187 132.342 79.4507 132.342 80.4C132.342 81.3493 132.534 82.1867 132.918 82.912C133.302 83.6267 133.825 84.176 134.486 84.56C135.147 84.944 135.894 85.136 136.726 85.136ZM152.743 86H151.623L145.431 76.592V86H144.311V74.816H145.431L151.623 84.208V74.816H152.743V86Z" fill="#F3F2F0"/>
<path d="M46.59 95.04C46.4353 94.7147 46.2113 94.464 45.918 94.288C45.6247 94.1067 45.2833 94.016 44.894 94.016C44.5047 94.016 44.1527 94.1067 43.838 94.288C43.5287 94.464 43.2833 94.72 43.102 95.056C42.926 95.3867 42.838 95.7707 42.838 96.208C42.838 96.6453 42.926 97.0293 43.102 97.36C43.2833 97.6907 43.5287 97.9467 43.838 98.128C44.1527 98.304 44.5047 98.392 44.894 98.392C45.438 98.392 45.886 98.2293 46.238 97.904C46.59 97.5787 46.7953 97.1387 46.854 96.584H44.63V95.992H47.63V96.552C47.5873 97.0107 47.4433 97.432 47.198 97.816C46.9527 98.1947 46.63 98.496 46.23 98.72C45.83 98.9387 45.3847 99.048 44.894 99.048C44.3767 99.048 43.9047 98.928 43.478 98.688C43.0513 98.4427 42.7127 98.104 42.462 97.672C42.2167 97.24 42.094 96.752 42.094 96.208C42.094 95.664 42.2167 95.176 42.462 94.744C42.7127 94.3067 43.0513 93.968 43.478 93.728C43.9047 93.4827 44.3767 93.36 44.894 93.36C45.486 93.36 46.0087 93.5067 46.462 93.8C46.9207 94.0933 47.254 94.5067 47.462 95.04H46.59ZM51.8886 97.76H49.4566L49.0086 99H48.2406L50.2566 93.456H51.0966L53.1046 99H52.3366L51.8886 97.76ZM51.6806 97.168L50.6726 94.352L49.6646 97.168H51.6806ZM59.6392 93.464V99H58.9112V94.872L57.0712 99H56.5592L54.7112 94.864V99H53.9832V93.464H54.7672L56.8152 98.04L58.8632 93.464H59.6392ZM61.6018 94.016V95.88H63.6338V96.48H61.6018V98.4H63.8738V99H60.8738V93.416H63.8738V94.016H61.6018ZM68.8442 93.424C69.4522 93.424 69.9775 93.5387 70.4202 93.768C70.8682 93.992 71.2095 94.3147 71.4442 94.736C71.6842 95.1573 71.8042 95.6533 71.8042 96.224C71.8042 96.7947 71.6842 97.2907 71.4442 97.712C71.2095 98.128 70.8682 98.448 70.4202 98.672C69.9775 98.8907 69.4522 99 68.8442 99H67.1082V93.424H68.8442ZM68.8442 98.4C69.5642 98.4 70.1135 98.2107 70.4922 97.832C70.8709 97.448 71.0602 96.912 71.0602 96.224C71.0602 95.5307 70.8682 94.9893 70.4842 94.6C70.1055 94.2107 69.5589 94.016 68.8442 94.016H67.8362V98.4H68.8442ZM73.4924 94.016V95.88H75.5244V96.48H73.4924V98.4H75.7644V99H72.7644V93.416H75.7644V94.016H73.4924ZM81.474 93.424L79.37 99H78.53L76.426 93.424H77.202L78.954 98.232L80.706 93.424H81.474ZM86.1731 99.056C85.8051 99.056 85.4744 98.992 85.1811 98.864C84.8931 98.7307 84.6664 98.5493 84.5011 98.32C84.3357 98.0853 84.2504 97.816 84.2451 97.512H85.0211C85.0477 97.7733 85.1544 97.9947 85.3411 98.176C85.5331 98.352 85.8104 98.44 86.1731 98.44C86.5197 98.44 86.7917 98.3547 86.9891 98.184C87.1917 98.008 87.2931 97.784 87.2931 97.512C87.2931 97.2987 87.2344 97.1253 87.1171 96.992C86.9997 96.8587 86.8531 96.7573 86.6771 96.688C86.5011 96.6187 86.2637 96.544 85.9651 96.464C85.5971 96.368 85.3011 96.272 85.0771 96.176C84.8584 96.08 84.6691 95.9307 84.5091 95.728C84.3544 95.52 84.2771 95.2427 84.2771 94.896C84.2771 94.592 84.3544 94.3227 84.5091 94.088C84.6637 93.8533 84.8797 93.672 85.1571 93.544C85.4397 93.416 85.7624 93.352 86.1251 93.352C86.6477 93.352 87.0744 93.4827 87.4051 93.744C87.7411 94.0053 87.9304 94.352 87.9731 94.784H87.1731C87.1464 94.5707 87.0344 94.384 86.8371 94.224C86.6397 94.0587 86.3784 93.976 86.0531 93.976C85.7491 93.976 85.5011 94.056 85.3091 94.216C85.1171 94.3707 85.0211 94.5893 85.0211 94.872C85.0211 95.0747 85.0771 95.24 85.1891 95.368C85.3064 95.496 85.4477 95.5947 85.6131 95.664C85.7837 95.728 86.0211 95.8027 86.3251 95.888C86.6931 95.9893 86.9891 96.0907 87.2131 96.192C87.4371 96.288 87.6291 96.44 87.7891 96.648C87.9491 96.8507 88.0291 97.128 88.0291 97.48C88.0291 97.752 87.9571 98.008 87.8131 98.248C87.6691 98.488 87.4557 98.6827 87.1731 98.832C86.8904 98.9813 86.5571 99.056 86.1731 99.056ZM92.5324 93.424V94.016H91.0124V99H90.2844V94.016H88.7564V93.424H92.5324ZM94.1405 93.424V96.952C94.1405 97.448 94.2605 97.816 94.5005 98.056C94.7458 98.296 95.0845 98.416 95.5165 98.416C95.9432 98.416 96.2765 98.296 96.5165 98.056C96.7618 97.816 96.8845 97.448 96.8845 96.952V93.424H97.6125V96.944C97.6125 97.408 97.5192 97.8 97.3325 98.12C97.1458 98.4347 96.8925 98.6693 96.5725 98.824C96.2578 98.9787 95.9032 99.056 95.5085 99.056C95.1138 99.056 94.7565 98.9787 94.4365 98.824C94.1218 98.6693 93.8712 98.4347 93.6845 98.12C93.5032 97.8 93.4125 97.408 93.4125 96.944V93.424H94.1405ZM100.563 93.424C101.171 93.424 101.696 93.5387 102.139 93.768C102.587 93.992 102.928 94.3147 103.163 94.736C103.403 95.1573 103.523 95.6533 103.523 96.224C103.523 96.7947 103.403 97.2907 103.163 97.712C102.928 98.128 102.587 98.448 102.139 98.672C101.696 98.8907 101.171 99 100.563 99H98.8269V93.424H100.563ZM100.563 98.4C101.283 98.4 101.832 98.2107 102.211 97.832C102.59 97.448 102.779 96.912 102.779 96.224C102.779 95.5307 102.587 94.9893 102.203 94.6C101.824 94.2107 101.278 94.016 100.563 94.016H99.5549V98.4H100.563ZM105.211 93.424V99H104.483V93.424H105.211ZM108.98 99.056C108.463 99.056 107.991 98.936 107.564 98.696C107.137 98.4507 106.799 98.112 106.548 97.68C106.303 97.2427 106.18 96.752 106.18 96.208C106.18 95.664 106.303 95.176 106.548 94.744C106.799 94.3067 107.137 93.968 107.564 93.728C107.991 93.4827 108.463 93.36 108.98 93.36C109.503 93.36 109.977 93.4827 110.404 93.728C110.831 93.968 111.167 94.304 111.412 94.736C111.657 95.168 111.78 95.6587 111.78 96.208C111.78 96.7573 111.657 97.248 111.412 97.68C111.167 98.112 110.831 98.4507 110.404 98.696C109.977 98.936 109.503 99.056 108.98 99.056ZM108.98 98.424C109.369 98.424 109.719 98.3333 110.028 98.152C110.343 97.9707 110.588 97.712 110.764 97.376C110.945 97.04 111.036 96.6507 111.036 96.208C111.036 95.76 110.945 95.3707 110.764 95.04C110.588 94.704 110.345 94.4453 110.036 94.264C109.727 94.0827 109.375 93.992 108.98 93.992C108.585 93.992 108.233 94.0827 107.924 94.264C107.615 94.4453 107.369 94.704 107.188 95.04C107.012 95.3707 106.924 95.76 106.924 96.208C106.924 96.6507 107.012 97.04 107.188 97.376C107.369 97.712 107.615 97.9707 107.924 98.152C108.239 98.3333 108.591 98.424 108.98 98.424Z" fill="#F3F2F0"/>
</svg>
