<svg width="178" height="56" viewBox="0 0 178 56" fill="none" xmlns="http://www.w3.org/2000/svg">
<path d="M57.872 37.04V30.38L68.6 15.08H77.204V30.128H79.796V37.04H77.204V41H69.14V37.04H57.872ZM69.788 24.188L65.9 30.128H69.788V24.188ZM103.164 15.512V21.848H96.3957V41H88.4037V21.848H81.7077V15.512H103.164ZM121.675 37.148H113.179L111.919 41H103.531L112.855 15.512H122.071L131.359 41H122.935L121.675 37.148ZM119.731 31.136L117.427 24.044L115.123 31.136H119.731ZM141.167 34.952H148.871V41H133.175V15.512H141.167V34.952ZM159.378 21.884V25.016H167.298V31.028H159.378V34.628H168.378V41H151.386V15.512H168.378V21.884H159.378Z" fill="white"/>
<path d="M11.7338 32.7731C11.7338 32.7731 11.6574 32.7475 11.5713 32.7731C13.3524 38.7007 17.8027 43.9032 23.8111 45.3542C23.8853 45.3721 23.9622 45.3851 24.0382 45.3777C24.1903 45.3631 24.1903 45.2774 24.1903 44.7767C24.1903 44.4951 24.1903 44.2934 23.9232 44.2311C17.8306 42.9359 13.5182 38.6954 11.7338 32.7731Z" fill="white"/>
<path d="M44.2662 23.2269C44.2662 23.2269 44.3426 23.2525 44.4287 23.2269C42.6476 17.2993 38.1973 12.0968 32.1889 10.6458C32.1147 10.6279 32.0378 10.6149 31.9617 10.6223C31.8097 10.6369 31.8097 10.7226 31.8097 11.2233C31.8097 11.5049 31.8097 11.7066 32.0768 11.7689C38.1694 13.0641 42.4818 17.3046 44.2662 23.2269Z" fill="white"/>
<path d="M8 28C8 16.9543 16.9543 8 28 8C28.7634 8 29.5169 8.04277 30.2581 8.12606V42.0149C36.2884 41.0509 41.0509 36.2884 42.0149 30.2581H31.5484V25.7419L47.8739 25.7419C47.9572 26.4831 48 27.2366 48 28C48 39.0457 39.0457 48 28 48C27.2366 48 26.4831 47.9572 25.7419 47.8739V13.9851C19.7116 14.9491 14.9491 19.7116 13.9851 25.7419L24.4516 25.7419V30.2581H8.12606C8.04277 29.5169 8 28.7634 8 28Z" fill="white"/>
</svg>
