<svg width="17" height="17" viewBox="0 0 17 17" fill="none" xmlns="http://www.w3.org/2000/svg">
<g clip-path="url(#clip0_55457_2816)">
<path d="M8.49935 1.83301V6.16634C8.49936 6.41493 8.59196 6.6546 8.7591 6.83862C8.92623 7.02264 9.15591 7.13781 9.40335 7.16167L9.49935 7.16634H13.8327V13.833C13.8328 14.1694 13.7057 14.4934 13.477 14.74C13.2483 14.9867 12.9348 15.1378 12.5993 15.163L12.4993 15.1663H4.49935C4.16296 15.1664 3.83897 15.0394 3.59232 14.8107C3.34566 14.5819 3.19458 14.2684 3.16935 13.933L3.16602 13.833V3.16634C3.16591 2.82996 3.29295 2.50596 3.52168 2.25931C3.75041 2.01265 4.06391 1.86157 4.39935 1.83634L4.49935 1.83301H8.49935ZM9.83268 1.86167C10.0483 1.90744 10.2491 2.00593 10.4173 2.14834L10.4993 2.22367L13.442 5.16634C13.5982 5.32242 13.7132 5.51484 13.7767 5.72634L13.8033 5.83301H9.83268V1.86167Z" fill="white"/>
</g>
<defs>
<clipPath id="clip0_55457_2816">
<rect width="16" height="16" fill="white" transform="translate(0.5 0.5)"/>
</clipPath>
</defs>
</svg>
