<svg width="32" height="32" viewBox="0 0 32 32" fill="none" xmlns="http://www.w3.org/2000/svg">
<circle cx="16" cy="16" r="16" fill="white"/>
<path d="M16.0004 8.16039C18.5604 8.16039 18.8804 8.16039 19.9204 8.24039C22.5604 8.32039 23.7604 9.60039 23.8404 12.1604C23.9204 13.2004 23.9204 13.4404 23.9204 16.0004C23.9204 18.5604 23.9204 18.8804 23.8404 19.8404C23.7604 22.4004 22.4804 23.6804 19.9204 23.7604C18.8804 23.8404 18.6404 23.8404 16.0004 23.8404C13.4404 23.8404 13.1204 23.8404 12.1604 23.7604C9.52039 23.6804 8.32039 22.4004 8.24039 19.8404C8.16039 18.8004 8.16039 18.5604 8.16039 16.0004C8.16039 13.4404 8.16039 13.1204 8.24039 12.1604C8.32039 9.60039 9.60039 8.32039 12.1604 8.24039C13.1204 8.16039 13.4404 8.16039 16.0004 8.16039ZM16.0004 6.40039C13.3604 6.40039 13.0404 6.40039 12.0804 6.48039C8.56039 6.64039 6.64039 8.56039 6.48039 12.0804C6.40039 13.0404 6.40039 13.3604 6.40039 16.0004C6.40039 18.6404 6.40039 18.9604 6.48039 19.9204C6.64039 23.4404 8.56039 25.3604 12.0804 25.5204C13.0404 25.6004 13.3604 25.6004 16.0004 25.6004C18.6404 25.6004 18.9604 25.6004 19.9204 25.5204C23.4404 25.3604 25.3604 23.4404 25.5204 19.9204C25.6004 18.9604 25.6004 18.6404 25.6004 16.0004C25.6004 13.3604 25.6004 13.0404 25.5204 12.0804C25.3604 8.56039 23.4404 6.64039 19.9204 6.48039C18.9604 6.40039 18.6404 6.40039 16.0004 6.40039ZM16.0004 11.0404C13.2804 11.0404 11.0404 13.2804 11.0404 16.0004C11.0404 18.7204 13.2804 20.9604 16.0004 20.9604C18.7204 20.9604 20.9604 18.7204 20.9604 16.0004C20.9604 13.2804 18.7204 11.0404 16.0004 11.0404ZM16.0004 19.2004C14.2404 19.2004 12.8004 17.7604 12.8004 16.0004C12.8004 14.2404 14.2404 12.8004 16.0004 12.8004C17.7604 12.8004 19.2004 14.2404 19.2004 16.0004C19.2004 17.7604 17.7604 19.2004 16.0004 19.2004ZM21.1204 9.76039C20.4804 9.76039 20.0004 10.2404 20.0004 10.8804C20.0004 11.5204 20.4804 12.0004 21.1204 12.0004C21.7604 12.0004 22.2404 11.5204 22.2404 10.8804C22.2404 10.2404 21.7604 9.76039 21.1204 9.76039Z" fill="#1D1D1D"/>
</svg>
