<svg width="32" height="32" viewBox="0 0 32 32" fill="none" xmlns="http://www.w3.org/2000/svg">
<path d="M12.4609 20.2686V23.3682C12.4609 23.6284 12.6197 23.8633 12.8609 23.9568C12.9347 23.9858 13.0109 23.9997 13.0859 23.9997C13.2584 23.9997 13.4272 23.9277 13.5484 23.7926L15.6234 21.4849L12.4609 20.2686Z" fill="#E2E2E2"/>
<path d="M25.8001 8.1688C25.6251 8.0046 25.3726 7.95534 25.1488 8.04249L6.39876 15.4101C6.15751 15.5061 5.99876 15.7411 6.00001 16.0025C6.00126 16.264 6.16126 16.4977 6.40251 16.5899L11.5713 18.5767L22.8051 11.2988L13.5375 19.3333L21.1938 22.2751C21.2651 22.3016 21.3413 22.3167 21.4163 22.3167C21.5113 22.3167 21.6051 22.2953 21.6913 22.2523C21.8463 22.1753 21.9638 22.0363 22.0138 21.8696L25.9726 8.81803C26.0426 8.58562 25.9763 8.33426 25.8001 8.1688Z" fill="#E2E2E2"/>
</svg>
