<svg width="32" height="32" viewBox="0 0 32 32" fill="none" xmlns="http://www.w3.org/2000/svg">
<path d="M15.9999 8.16039C18.5599 8.16039 18.8799 8.16039 19.9199 8.24039C22.5599 8.32039 23.7599 9.60039 23.8399 12.1604C23.9199 13.2004 23.9199 13.4404 23.9199 16.0004C23.9199 18.5604 23.9199 18.8804 23.8399 19.8404C23.7599 22.4004 22.4799 23.6804 19.9199 23.7604C18.8799 23.8404 18.6399 23.8404 15.9999 23.8404C13.4399 23.8404 13.1199 23.8404 12.1599 23.7604C9.5199 23.6804 8.3199 22.4004 8.2399 19.8404C8.1599 18.8004 8.1599 18.5604 8.1599 16.0004C8.1599 13.4404 8.1599 13.1204 8.2399 12.1604C8.3199 9.60039 9.5999 8.32039 12.1599 8.24039C13.1199 8.16039 13.4399 8.16039 15.9999 8.16039ZM15.9999 6.40039C13.3599 6.40039 13.0399 6.40039 12.0799 6.48039C8.5599 6.64039 6.6399 8.56039 6.4799 12.0804C6.3999 13.0404 6.3999 13.3604 6.3999 16.0004C6.3999 18.6404 6.3999 18.9604 6.4799 19.9204C6.6399 23.4404 8.5599 25.3604 12.0799 25.5204C13.0399 25.6004 13.3599 25.6004 15.9999 25.6004C18.6399 25.6004 18.9599 25.6004 19.9199 25.5204C23.4399 25.3604 25.3599 23.4404 25.5199 19.9204C25.5999 18.9604 25.5999 18.6404 25.5999 16.0004C25.5999 13.3604 25.5999 13.0404 25.5199 12.0804C25.3599 8.56039 23.4399 6.64039 19.9199 6.48039C18.9599 6.40039 18.6399 6.40039 15.9999 6.40039ZM15.9999 11.0404C13.2799 11.0404 11.0399 13.2804 11.0399 16.0004C11.0399 18.7204 13.2799 20.9604 15.9999 20.9604C18.7199 20.9604 20.9599 18.7204 20.9599 16.0004C20.9599 13.2804 18.7199 11.0404 15.9999 11.0404ZM15.9999 19.2004C14.2399 19.2004 12.7999 17.7604 12.7999 16.0004C12.7999 14.2404 14.2399 12.8004 15.9999 12.8004C17.7599 12.8004 19.1999 14.2404 19.1999 16.0004C19.1999 17.7604 17.7599 19.2004 15.9999 19.2004ZM21.1199 9.76039C20.4799 9.76039 19.9999 10.2404 19.9999 10.8804C19.9999 11.5204 20.4799 12.0004 21.1199 12.0004C21.7599 12.0004 22.2399 11.5204 22.2399 10.8804C22.2399 10.2404 21.7599 9.76039 21.1199 9.76039Z" fill="#E2E2E2"/>
</svg>
