<svg width="32" height="32" viewBox="0 0 32 32" fill="none" xmlns="http://www.w3.org/2000/svg">
<path fill-rule="evenodd" clip-rule="evenodd" d="M18.1502 9.61221H17.3348V13.1807C17.3348 13.4991 17.3621 13.7149 17.4072 13.8517C17.4892 14.08 17.6709 14.1868 17.9341 14.1868C18.2324 14.1868 18.5428 14.0059 18.8683 13.6327V14.1247H19.6859V9.61221H18.8683V13.0613C18.6869 13.3174 18.5153 13.4441 18.3518 13.4441C18.2423 13.4441 18.1779 13.3793 18.16 13.2526C18.1502 13.2258 18.1502 13.1264 18.1502 12.9346V9.61221ZM14.5024 10.0205C14.3286 10.2486 14.2466 10.6012 14.2466 11.0836V12.6638C14.2466 13.1433 14.3286 13.4994 14.5024 13.725C14.7286 14.0329 15.047 14.1868 15.4546 14.1868C15.8641 14.1868 16.1823 14.0329 16.4084 13.725C16.5798 13.4994 16.6618 13.1436 16.6618 12.6638V11.0836C16.6618 10.6012 16.5798 10.2484 16.4084 10.0205C16.1823 9.71189 15.8641 9.5577 15.4546 9.5577C15.047 9.5577 14.7286 9.71189 14.5024 10.0205ZM12.7037 10.4472L12.06 8.06934H11.1061C11.2005 8.34675 11.2968 8.6247 11.3932 8.90272L11.3932 8.90288L11.3933 8.90307L11.3933 8.90309C11.492 9.18769 11.5906 9.47235 11.6872 9.75658C11.9782 10.6012 12.1596 11.2378 12.2419 11.6724V14.1249H13.1484V11.6724L14.2392 8.06934H13.3222L12.7037 10.4472ZM21.013 23.7443C21.714 23.666 22.2961 23.1406 22.4601 22.4288C22.6936 21.4151 22.6946 20.308 22.6946 19.264V19.2444C22.6946 18.2062 22.6946 17.1069 22.4633 16.0992C22.2991 15.3872 21.7167 14.862 21.0157 14.7837C19.3555 14.5983 17.6751 14.5973 16.0023 14.5983C14.3291 14.5973 12.6487 14.5983 10.9885 14.7837C10.2875 14.8618 9.70562 15.3872 9.54186 16.0992C9.30861 17.1132 9.30566 18.22 9.30566 19.264C9.30566 20.308 9.30566 21.4151 9.53916 22.4288C9.70268 23.1408 10.2851 23.666 10.986 23.7443C12.646 23.9297 14.3266 23.9307 15.9994 23.9297C17.6729 23.9307 19.3525 23.9297 21.013 23.7443ZM19.5228 17.9723C19.7565 17.6666 20.0779 17.5146 20.4919 17.5146C20.898 17.5146 21.2199 17.6669 21.446 17.9718C21.6156 18.1977 21.6964 18.5468 21.6964 19.0239V19.9488H20.0779V20.7408C20.0779 21.1538 20.2139 21.36 20.4919 21.36C20.691 21.36 20.8074 21.252 20.8535 21.0357C20.8607 20.9918 20.8712 20.8118 20.8712 20.4877H21.6964V20.6053C21.6964 20.8663 21.6868 21.0458 21.6792 21.1268C21.6522 21.306 21.5884 21.4683 21.4902 21.6117C21.2663 21.936 20.9346 22.0959 20.512 22.0959C20.0887 22.0959 19.7664 21.9434 19.5329 21.6385C19.3605 21.4148 19.2729 21.0632 19.2729 20.5886V19.0244C19.2729 18.5473 19.3512 18.1982 19.5228 17.9723ZM20.0784 19.2755H20.8877V18.8623C20.8877 18.4496 20.7521 18.2429 20.4845 18.2429C20.2142 18.2429 20.0784 18.4494 20.0784 18.8623V19.2755ZM14.7602 20.9817C14.5807 21.2353 14.411 21.3603 14.2485 21.3603C14.1405 21.3603 14.0788 21.2967 14.0592 21.171C14.0518 21.145 14.0518 21.0463 14.0518 20.8567V17.5691H13.2426V21.0995C13.2426 21.415 13.2698 21.6281 13.314 21.7637C13.3953 21.9901 13.575 22.0961 13.8353 22.0961C14.1331 22.0961 14.4385 21.9164 14.7602 21.5476V22.0347H15.5699V17.5691H14.7602V20.9817ZM17.0787 17.9989C17.3397 17.6773 17.6174 17.5147 17.915 17.5147C18.2366 17.5147 18.4537 17.6842 18.5615 18.0191C18.6157 18.1985 18.6435 18.4937 18.6435 18.9164V20.6945C18.6435 21.1078 18.6157 21.4051 18.5615 21.5944C18.4534 21.9268 18.2369 22.0962 17.915 22.0962C17.627 22.0962 17.3495 21.9362 17.0787 21.602V22.0346H16.2697V16.0416H17.0787V17.9989ZM17.4819 21.3604C17.7156 21.3604 17.834 21.1615 17.834 20.7579V18.8521C17.834 18.4495 17.7154 18.2427 17.4819 18.2427C17.3491 18.2427 17.2138 18.3061 17.0785 18.4399V21.1613C17.2138 21.2968 17.3491 21.3604 17.4819 21.3604ZM10.3041 16.885H11.2555V22.0344H12.1556V16.885H13.1247V16.0416H10.3041V16.885ZM15.8447 12.8175C15.8447 13.2349 15.7183 13.4438 15.4548 13.4438C15.1911 13.4438 15.0645 13.2351 15.0645 12.8175V10.9193C15.0645 10.502 15.1911 10.2938 15.4548 10.2938C15.7183 10.2938 15.8447 10.5017 15.8447 10.9193V12.8175Z" fill="#E2E2E2"/>
</svg>
